<svg width="920" height="340" xmlns="http://www.w3.org/2000/svg" xml:space="preserve" version="1.1">

 <g>
  <title>Layer 1</title>
  <g id="Camada_1">
   <g id="Camada_2"/>
   <g id="Camada_4"/>
   <g id="svg_1">
    <g id="svg_2">
     <g id="svg_3">
      <g id="svg_4">
       <path id="svg_5" fill="#4BBECF" d="m179,215.6l-30,30c-2.9,2.9 -7.5,2.9 -10.4,0l-75.6,-75.6c-22.3,-22.3 -22.3,-58.5 0,-80.8l75.6,-75.6c2.9,-2.9 7.5,-2.9 10.4,0l30,30c2.9,2.9 2.9,7.5 0,10.4l-55.4,55.4c-11.2,11.2 -11.1,29.2 0,40.4l55.4,55.4c2.9,2.9 2.9,7.5 0,10.4z" class="st4"/>
      </g>
      <g id="svg_6">
       <path id="svg_7" fill="#4BBECF" d="m305.4,250.8l-75.6,75.6c-2.9,2.9 -7.5,2.9 -10.4,0l-30,-30c-2.9,-2.9 -2.9,-7.5 0,-10.4l55.4,-55.4c11.2,-11.2 11.2,-29.2 0,-40.4l-55.4,-55.4c-2.9,-2.9 -2.9,-7.5 0,-10.4l30,-30c2.9,-2.9 7.5,-2.9 10.4,0l75.6,75.6c22.3,22.3 22.3,58.5 0,80.8z" class="st4"/>
      </g>
     </g>
    </g>
    <g id="svg_8">
     <g id="svg_9">
      <path id="svg_10" fill="#142C46" d="m364,182.5c4.8,3.7 9.5,5.6 13.8,5.6c2,0 3.6,-0.5 4.9,-1.4c1.2,-0.9 1.8,-2.1 1.8,-3.6c0,-1 -0.4,-1.9 -1.3,-2.8c-0.8,-0.9 -1.9,-1.6 -3.2,-2.2c-1.3,-0.6 -2.9,-1.3 -4.6,-2c-1.7,-0.7 -3.5,-1.5 -5.3,-2.2c-1.8,-0.7 -3.6,-1.6 -5.3,-2.7c-1.7,-1.1 -3.3,-2.3 -4.6,-3.6c-1.3,-1.3 -2.4,-2.9 -3.2,-4.9c-0.8,-1.9 -1.3,-4.1 -1.3,-6.4c0,-5.4 2.1,-9.7 6.3,-13c4.3,-3.4 9.7,-5.1 16,-5.1c8,0 14.7,2.4 20,7.3c1,1 0.9,2 -0.2,3l-6,6.3c-0.7,0.7 -1.7,0.7 -3.2,0.1c-3.7,-2.1 -7.1,-3.2 -10.4,-3.2c-1.8,0 -3.3,0.4 -4.5,1.2c-1.2,0.8 -1.8,1.9 -1.8,3.2c0,1.1 0.9,2.2 2.6,3.2c1.7,1 4.2,2.1 7.5,3.4c1.8,0.6 3.5,1.2 5.1,1.9c1.6,0.7 3.3,1.6 5,2.8c1.8,1.2 3.3,2.4 4.5,3.8c1.2,1.4 2.2,3 3,5c0.8,1.9 1.2,4.1 1.1,6.3c0,5.4 -2.2,9.9 -6.6,13.6c-4.3,3.7 -10,5.5 -17.1,5.5c-9.2,0 -16.8,-3.2 -22.9,-9.6c-1,-1.1 -0.8,-2.2 0.4,-3.5l5.6,-6c1.4,-0.9 2.5,-1 3.9,0z" class="st1"/>
      <path id="svg_11" fill="#142C46" d="m407.8,192.4c-6.1,-6.2 -9.2,-13.7 -9.2,-22.5c0,-8.7 3.1,-16.2 9.2,-22.5c6,-6.2 13.5,-9.2 22.3,-9.2c8.9,0 16.2,3.1 22.2,9.2c6.1,6.2 9.2,13.7 9.2,22.5c0,8.7 -3.1,16.2 -9.2,22.5c-5.9,6.2 -13.3,9.2 -22.2,9.2c-8.8,0 -16.2,-3 -22.3,-9.2zm22.4,-7.8c3.9,0 7.2,-1.4 9.9,-4.2c2.7,-2.8 4,-6.3 4,-10.4c0,-4.1 -1.3,-7.6 -4,-10.4c-2.7,-2.8 -6,-4.2 -9.9,-4.2c-4,0 -7.3,1.4 -10,4.2c-2.7,2.8 -4,6.3 -4,10.4c0,4.1 1.3,7.6 4,10.4c2.7,2.8 6,4.2 10,4.2z" class="st1"/>
      <path id="svg_12" fill="#142C46" d="m465.1,143.2c6.8,-3.3 14.9,-4.9 24.2,-4.9c12.2,0 20.5,3 25,8.9c2.1,2.8 3.7,5.9 4.6,9.4c0.9,3.4 1.4,7.5 1.4,12.3l0,29.5c0,1.5 -0.7,2.2 -2.2,2.2l-12.7,0c-1.5,0 -2.2,-0.7 -2.2,-2.2l0,-3.9c-2.4,2.3 -5.6,4.1 -9.7,5.3c-4.1,1.2 -8.3,1.9 -12.5,2c-5.6,0.1 -10.6,-1.3 -15,-4.1c-4.2,-2.9 -6.2,-7.6 -6.1,-13.9c0.1,-13.2 12.9,-19.8 38.4,-19.8l3.9,0.1l0,-0.7c0,-2.8 -1.1,-5.1 -3.3,-6.9c-2.2,-1.7 -5.9,-2.6 -11.1,-2.6c-4.3,0 -9.3,0.8 -14.8,2.3l-2.6,0.7c-1.4,0.5 -2.3,0.1 -2.8,-1.3l-3.5,-9.1c-0.5,-1.7 -0.2,-2.8 1,-3.3zm37.5,36.9l0,-6l-1.7,0c-7.5,0 -13.1,0.7 -16.8,2c-3.6,1.3 -5.5,3.6 -5.5,6.9c0,4.8 3.3,7.2 9.9,7.2c3.9,0 7.2,-1 9.9,-3c2.8,-2.1 4.2,-4.5 4.2,-7.1z" class="st1"/>
      <path id="svg_13" fill="#142C46" d="m524.4,139.4l13.8,0c1.4,0 2.1,0.7 2.1,2.1l0,7.7l0.1,0c1.3,-3 3.3,-5.6 6.2,-7.7c2.9,-2.1 5.9,-3.2 9.1,-3.2c3.9,0 7,0.7 9.3,2c0.9,0.5 1.1,1.5 0.6,3.1l-3.5,12.5c-0.6,1.2 -1.5,1.5 -2.9,0.9c-1.8,-0.7 -3.7,-1 -5.5,-1c-3.9,0 -7.1,1.5 -9.7,4.6c-2.6,3.1 -3.8,7.1 -3.8,12.1l0,25.9c0,1.4 -0.7,2.1 -2.1,2.1l-13.8,0c-1.4,0 -2.1,-0.7 -2.1,-2.1l0,-56.9c0.1,-1.4 0.8,-2.1 2.2,-2.1z" class="st1"/>
      <path id="svg_14" fill="#142C46" d="m591.6,186.6c4.8,0 9.4,-1.1 13.8,-3.2c1.3,-0.6 2.3,-0.3 3,0.7l6.1,8.6c0.8,1.2 0.6,2.2 -0.6,2.8c-6.7,4.1 -14.3,6.2 -22.9,6.2c-8.7,0 -16.1,-3.1 -22.2,-9.2c-6.2,-6.2 -9.3,-13.7 -9.3,-22.5c0,-8.6 2.8,-16 8.4,-22.2c5.7,-6.3 12.9,-9.5 21.5,-9.5c9.3,0 16.7,3.3 22.1,10c5.5,6.7 8.3,14.8 8.3,24.4c0,1.5 -0.8,2.2 -2.3,2.2l-41.1,0c0.8,3.5 2.5,6.3 5.3,8.5c2.7,2.1 6,3.2 9.9,3.2zm-15,-22.5l26,0c-0.8,-3.8 -2.3,-6.8 -4.5,-8.9c-2.2,-2.1 -5.1,-3.2 -8.7,-3.2c-3.4,0 -6.2,1.1 -8.5,3.3c-2.3,2.2 -3.8,5.1 -4.3,8.8z" class="st1"/>
      <path id="svg_15" fill="#142C46" d="m627,182.5c4.8,3.7 9.5,5.6 13.8,5.6c2,0 3.6,-0.5 4.9,-1.4c1.2,-0.9 1.8,-2.1 1.8,-3.6c0,-1 -0.4,-1.9 -1.3,-2.8c-0.8,-0.9 -1.9,-1.6 -3.2,-2.2c-1.3,-0.6 -2.9,-1.3 -4.6,-2c-1.7,-0.7 -3.5,-1.5 -5.3,-2.2c-1.8,-0.7 -3.6,-1.6 -5.3,-2.7c-1.7,-1.1 -3.3,-2.3 -4.6,-3.6c-1.3,-1.3 -2.4,-2.9 -3.2,-4.9c-0.8,-1.9 -1.3,-4.1 -1.3,-6.4c0,-5.4 2.1,-9.7 6.3,-13c4.3,-3.4 9.7,-5.1 16,-5.1c8,0 14.7,2.4 20,7.3c1,1 0.9,2 -0.2,3l-6,6.3c-0.7,0.7 -1.7,0.7 -3.2,0.1c-3.7,-2.1 -7.1,-3.2 -10.4,-3.2c-1.8,0 -3.3,0.4 -4.5,1.2c-1.2,0.8 -1.8,1.9 -1.8,3.2c0,1.1 0.9,2.2 2.6,3.2c1.7,1 4.2,2.1 7.5,3.4c1.8,0.6 3.5,1.2 5.1,1.9c1.6,0.7 3.3,1.6 5,2.8c1.8,1.2 3.3,2.4 4.5,3.8c1.2,1.4 2.2,3 3,5c0.8,1.9 1.2,4.1 1.1,6.3c0,5.4 -2.2,9.9 -6.6,13.6c-4.3,3.7 -10,5.5 -17.1,5.5c-9.2,0 -16.8,-3.2 -22.9,-9.6c-1,-1.1 -0.8,-2.2 0.4,-3.5l5.6,-6c1.3,-0.9 2.5,-1 3.9,0z" class="st1"/>
     </g>
     <g id="svg_16">
      <path id="svg_17" fill="#142C46" d="m756.6,200.5l-13.6,0c-1.5,0 -2.2,-0.7 -2.2,-2.1l0,-6.2c-4.6,6.3 -10.8,9.5 -18.5,9.5c-7.9,0 -14.4,-3 -19.4,-9.1c-5,-6.2 -7.6,-13.8 -7.6,-22.6c0,-8.9 2.5,-16.3 7.6,-22.5c5,-6.2 11.4,-9.2 19.4,-9.2c7.9,0 14.1,3.1 18.5,9.4l0,-36.7c0,-1.4 0.7,-2.1 2.2,-2.1l13.6,0c1.4,0 2.1,0.7 2.1,2.1l0,87.4c0,1.4 -0.7,2.1 -2.1,2.1zm-43.3,-30.6c0,4.1 1.4,7.6 4.1,10.4s6,4.2 9.9,4.2c3.9,0 7.2,-1.4 9.9,-4.2s4,-6.3 4,-10.4s-1.3,-7.6 -4,-10.4c-2.7,-2.9 -6,-4.3 -9.9,-4.3c-3.9,0 -7.2,1.4 -9.9,4.3c-2.8,2.9 -4.1,6.3 -4.1,10.4z" class="st1"/>
      <path id="svg_18" fill="#142C46" d="m793,186.6c4.8,0 9.4,-1.1 13.8,-3.2c1.3,-0.6 2.3,-0.3 3,0.7l6.1,8.6c0.8,1.2 0.6,2.2 -0.6,2.8c-6.7,4.1 -14.3,6.2 -22.9,6.2c-8.7,0 -16.1,-3.1 -22.2,-9.2c-6.2,-6.2 -9.3,-13.7 -9.3,-22.5c0,-8.6 2.8,-16 8.4,-22.2c5.7,-6.3 12.9,-9.5 21.5,-9.5c9.3,0 16.7,3.3 22.1,10c5.5,6.7 8.3,14.8 8.3,24.4c0,1.5 -0.8,2.2 -2.3,2.2l-41.1,0c0.8,3.5 2.5,6.3 5.3,8.5c2.7,2.1 6,3.2 9.9,3.2zm-15,-22.5l26,0c-0.8,-3.8 -2.3,-6.8 -4.5,-8.9c-2.2,-2.1 -5.1,-3.2 -8.7,-3.2c-3.4,0 -6.2,1.1 -8.5,3.3c-2.3,2.2 -3.8,5.1 -4.3,8.8z" class="st1"/>
      <path id="svg_19" fill="#142C46" d="m845.1,176.1l12.5,-34.6c0.7,-1.4 1.5,-2.1 2.4,-2.1l14.3,0c0.6,0 1,0.2 1.3,0.7c0.3,0.4 0.3,0.9 0.1,1.4l-20.5,56.6c-0.6,1.5 -1.4,2.3 -2.6,2.3l-15,0c-1.2,0 -2,-0.8 -2.6,-2.3l-20.4,-56.6c-0.6,-1.4 -0.1,-2.1 1.4,-2.1l14.2,0c1,0 1.8,0.7 2.4,2.1l12.5,34.6z" class="st1"/>
     </g>
     <g id="svg_20">
      <g id="svg_21">
       <path id="svg_22" fill="#4BBECF" d="m629.4,214.2l46.6,-80.3c1,-1.7 2.1,-2.6 3.3,-2.6l13.8,0c1,0 1.6,0.2 1.9,0.7c0.3,0.5 0.3,1.1 -0.2,1.9l-46.6,80.3c-1,1.7 -2.1,2.6 -3.3,2.6l-13.8,0c-1,0 -1.6,-0.2 -1.9,-0.7c-0.3,-0.5 -0.2,-1.1 0.2,-1.9z" class="st4"/>
      </g>
     </g>
    </g>
   </g>
  </g>
  <g id="Camada_3"/>
  <g display="none" class="st19" id="Camada_5"/>
 </g>
</svg>