<svg width="600" height="500" xmlns="http://www.w3.org/2000/svg" xml:space="preserve" version="1.1">

 <g>
  <title>Layer 1</title>
  <g id="Camada_1">
   <g id="Camada_2"/>
   <g id="Camada_4"/>
   <g id="svg_1">
    <g id="svg_2">
     <g id="svg_3">
      <g id="svg_4">
       <path id="svg_5" fill="#4BBECF" d="m294.2,239.3l-33.8,33.8c-3.2,3.2 -8.4,3.2 -11.7,0l-85.1,-85.1c-25.1,-25.1 -25.1,-65.8 0,-91l85.1,-85.1c3.2,-3.2 8.4,-3.2 11.7,0l33.8,33.8c3.2,3.2 3.2,8.4 0,11.7l-62.4,62.4c-12.6,12.6 -12.5,32.9 0,45.5l62.4,62.4c3.2,3.2 3.2,8.4 0,11.6z" class="st4"/>
      </g>
      <g id="svg_6">
       <path id="svg_7" fill="#4BBECF" d="m436.4,279l-85.1,85.1c-3.2,3.2 -8.4,3.2 -11.7,0l-33.8,-33.8c-3.2,-3.2 -3.2,-8.4 0,-11.7l62.4,-62.4c12.6,-12.6 12.6,-32.9 0,-45.5l-62.4,-62.4c-3.2,-3.2 -3.2,-8.4 0,-11.7l33.8,-33.8c3.2,-3.2 8.4,-3.2 11.7,0l85.1,85.1c25.1,25.2 25.2,66 0,91.1z" class="st4"/>
      </g>
     </g>
    </g>
    <g id="svg_8">
     <g id="svg_9">
      <path id="svg_10" fill="#F4F4F4" d="m17.7,452c5.5,4.2 10.6,6.3 15.6,6.3c2.3,0 4.1,-0.5 5.5,-1.6c1.4,-1.1 2,-2.4 2,-4.1c0,-1.1 -0.5,-2.2 -1.4,-3.1c-0.9,-1 -2.2,-1.8 -3.7,-2.4c-1.5,-0.7 -3.2,-1.4 -5.2,-2.2c-1.9,-0.8 -3.9,-1.6 -6,-2.4c-2,-0.8 -4,-1.8 -6,-3.1c-1.9,-1.2 -3.7,-2.6 -5.2,-4c-1.5,-1.5 -2.7,-3.3 -3.7,-5.5c-0.9,-2.2 -1.4,-4.6 -1.4,-7.2c0,-6 2.4,-10.9 7.1,-14.7c4.9,-3.8 10.9,-5.8 18,-5.8c9,0 16.5,2.7 22.5,8.2c1.1,1.1 1,2.2 -0.2,3.4l-6.7,7.1c-0.8,0.8 -1.9,0.8 -3.6,0.1c-4.1,-2.4 -8,-3.6 -11.7,-3.6c-2.1,0 -3.7,0.4 -5.1,1.3c-1.3,0.9 -2,2.1 -2,3.6c0,1.3 1,2.4 2.9,3.6c1.9,1.1 4.8,2.4 8.5,3.8c2.1,0.6 4,1.3 5.8,2.1c1.8,0.8 3.7,1.9 5.7,3.2c2,1.3 3.7,2.7 5.1,4.3c1.4,1.5 2.5,3.4 3.4,5.6c0.9,2.2 1.3,4.6 1.3,7.1c0,6 -2.5,11.2 -7.4,15.4c-4.9,4.1 -11.3,6.2 -19.3,6.2c-10.3,0 -18.9,-3.6 -25.8,-10.8c-1.1,-1.2 -0.9,-2.5 0.5,-3.9l6.3,-6.7c1.3,-1.3 2.7,-1.4 4.2,-0.2z" class="st1"/>
      <path id="svg_11" fill="#F4F4F4" d="m67,463.1c-6.9,-7 -10.3,-15.5 -10.3,-25.3c0,-9.8 3.4,-18.3 10.3,-25.3c6.8,-6.9 15.2,-10.4 25.2,-10.4c10,0 18.3,3.5 25,10.4c6.9,7 10.3,15.5 10.3,25.3c0,9.8 -3.4,18.3 -10.3,25.3c-6.7,6.9 -15,10.4 -25,10.4c-10,0 -18.4,-3.5 -25.2,-10.4zm25.2,-8.8c4.4,0 8.1,-1.6 11.1,-4.8c3,-3.2 4.5,-7.1 4.5,-11.7c0,-4.6 -1.5,-8.6 -4.5,-11.7c-3,-3.2 -6.7,-4.8 -11.1,-4.8c-4.5,0 -8.2,1.6 -11.2,4.8c-3,3.2 -4.5,7.1 -4.5,11.7c0,4.7 1.5,8.6 4.5,11.7c3,3.2 6.7,4.8 11.2,4.8z" class="st1"/>
      <path id="svg_12" fill="#F4F4F4" d="m131.5,407.7c7.6,-3.7 16.7,-5.6 27.2,-5.6c13.7,0 23.1,3.3 28.1,10c2.4,3.2 4.1,6.7 5.2,10.5s1.6,8.5 1.6,13.8l0,33.2c0,1.7 -0.8,2.5 -2.5,2.5l-14.3,0c-1.7,0 -2.5,-0.8 -2.5,-2.5l0,-4.4c-2.7,2.6 -6.3,4.6 -10.9,6c-4.6,1.4 -9.3,2.1 -14.1,2.2c-6.3,0.1 -12,-1.4 -16.9,-4.6c-4.7,-3.3 -7,-8.5 -6.8,-15.7c0.1,-14.9 14.6,-22.3 43.3,-22.3l4.4,0.1l0,-0.7c0,-3.2 -1.3,-5.7 -3.8,-7.7c-2.5,-2 -6.7,-3 -12.5,-3c-4.9,0 -10.4,0.9 -16.6,2.6l-2.9,0.8c-1.6,0.5 -2.6,0.1 -3.2,-1.4l-4,-10.3c-0.5,-1.7 -0.2,-2.9 1.2,-3.5zm42.2,41.5l0,-6.7l-1.9,0c-8.5,0 -14.8,0.7 -18.9,2.2c-4.1,1.5 -6.1,4.1 -6.1,7.8c0,5.4 3.7,8.1 11.1,8.1c4.4,0 8.1,-1.1 11.1,-3.4c3.1,-2.3 4.7,-5 4.7,-8z" class="st1"/>
      <path id="svg_13" fill="#F4F4F4" d="m198.2,403.5l15.5,0c1.6,0 2.3,0.8 2.3,2.3l0,8.7l0.1,0c1.4,-3.4 3.8,-6.3 7,-8.7c3.2,-2.4 6.7,-3.6 10.3,-3.6c4.4,0 7.9,0.8 10.5,2.3c1,0.5 1.2,1.7 0.7,3.5l-4,14.1c-0.7,1.3 -1.7,1.6 -3.2,1c-2.1,-0.8 -4.1,-1.1 -6.2,-1.1c-4.4,0 -8,1.7 -10.9,5.2c-2.9,3.5 -4.3,8 -4.3,13.6l0,29.1c0,1.6 -0.8,2.3 -2.3,2.3l-15.5,0c-1.6,0 -2.3,-0.8 -2.3,-2.3l0,-64c0,-1.7 0.8,-2.4 2.3,-2.4z" class="st1"/>
      <path id="svg_14" fill="#F4F4F4" d="m273.9,456.5c5.4,0 10.5,-1.2 15.5,-3.6c1.4,-0.6 2.6,-0.4 3.4,0.7l6.9,9.7c0.8,1.4 0.6,2.4 -0.7,3.2c-7.5,4.7 -16.1,7 -25.8,7c-9.7,0 -18.1,-3.5 -25,-10.4c-7,-7 -10.5,-15.4 -10.5,-25.3c0,-9.7 3.2,-18 9.5,-25c6.4,-7.1 14.5,-10.7 24.2,-10.7c10.5,0 18.8,3.7 24.9,11.2c6.2,7.5 9.3,16.7 9.3,27.5c0,1.7 -0.9,2.5 -2.6,2.5l-46.3,0c0.8,3.9 2.8,7.1 6,9.5c3.1,2.5 6.8,3.7 11.2,3.7zm-16.9,-25.3l29.2,0c-0.8,-4.3 -2.5,-7.6 -5.1,-10c-2.5,-2.4 -5.8,-3.6 -9.8,-3.6c-3.8,0 -7,1.2 -9.6,3.7c-2.5,2.5 -4.1,5.8 -4.7,9.9z" class="st1"/>
      <path id="svg_15" fill="#F4F4F4" d="m313.7,452c5.5,4.2 10.6,6.3 15.6,6.3c2.3,0 4.1,-0.5 5.5,-1.6c1.4,-1.1 2,-2.4 2,-4.1c0,-1.1 -0.5,-2.2 -1.4,-3.1c-0.9,-1 -2.2,-1.8 -3.7,-2.4c-1.5,-0.7 -3.2,-1.4 -5.2,-2.2c-1.9,-0.8 -3.9,-1.6 -6,-2.4c-2,-0.8 -4,-1.8 -6,-3.1c-1.9,-1.2 -3.7,-2.6 -5.2,-4c-1.5,-1.5 -2.7,-3.3 -3.7,-5.5c-0.9,-2.2 -1.4,-4.6 -1.4,-7.2c0,-6 2.4,-10.9 7.1,-14.7c4.9,-3.8 10.9,-5.8 18,-5.8c9,0 16.5,2.7 22.5,8.2c1.1,1.1 1.1,2.2 -0.2,3.4l-6.7,7.1c-0.8,0.8 -1.9,0.8 -3.6,0.1c-4.1,-2.4 -8,-3.6 -11.7,-3.6c-2.1,0 -3.7,0.4 -5.1,1.3c-1.3,0.9 -2,2.1 -2,3.6c0,1.3 1,2.4 2.9,3.6c1.9,1.1 4.8,2.4 8.5,3.8c2.1,0.6 4,1.3 5.8,2.1c1.8,0.8 3.7,1.9 5.7,3.2c2,1.3 3.7,2.7 5.1,4.3c1.4,1.5 2.5,3.4 3.4,5.6c0.9,2.2 1.3,4.6 1.3,7.1c0,6 -2.5,11.2 -7.4,15.4c-4.9,4.1 -11.3,6.2 -19.2,6.2c-10.3,0 -18.9,-3.6 -25.8,-10.8c-1.1,-1.2 -0.9,-2.5 0.5,-3.9l6.3,-6.7c1.2,-1.3 2.5,-1.4 4.1,-0.2z" class="st1"/>
     </g>
     <g id="svg_16">
      <path id="svg_17" fill="#F4F4F4" d="m459.6,472.2l-15.4,0c-1.7,0 -2.5,-0.8 -2.5,-2.3l0,-7c-5.2,7.1 -12.2,10.7 -20.9,10.7c-8.9,0 -16.2,-3.4 -21.9,-10.3c-5.7,-7 -8.5,-15.5 -8.5,-25.4c0,-10 2.8,-18.4 8.5,-25.3c5.6,-6.9 12.9,-10.4 21.9,-10.4c8.9,0 15.9,3.5 20.9,10.5l0,-41.2c0,-1.6 0.8,-2.3 2.5,-2.3l15.4,0c1.6,0 2.3,0.8 2.3,2.3l0,98.3c0,1.6 -0.7,2.4 -2.3,2.4zm-48.8,-34.4c0,4.7 1.5,8.6 4.6,11.7s6.8,4.8 11.1,4.8s8.1,-1.6 11.1,-4.8s4.5,-7.1 4.5,-11.7s-1.5,-8.5 -4.5,-11.7c-3.1,-3.2 -6.8,-4.8 -11.1,-4.8c-4.3,0 -8,1.6 -11.1,4.8c-3.1,3.2 -4.6,7.1 -4.6,11.7z" class="st1"/>
      <path id="svg_18" fill="#F4F4F4" d="m500.5,456.5c5.4,0 10.5,-1.2 15.5,-3.6c1.4,-0.6 2.6,-0.4 3.4,0.7l6.9,9.7c0.8,1.4 0.6,2.4 -0.7,3.2c-7.5,4.7 -16.1,7 -25.8,7c-9.7,0 -18.1,-3.5 -25,-10.4c-7,-7 -10.5,-15.4 -10.5,-25.3c0,-9.7 3.2,-18 9.5,-25c6.4,-7.1 14.5,-10.7 24.2,-10.7c10.5,0 18.8,3.7 24.9,11.2c6.2,7.5 9.3,16.7 9.3,27.5c0,1.7 -0.9,2.5 -2.6,2.5l-46.3,0c0.8,3.9 2.8,7.1 6,9.5c3.2,2.5 6.9,3.7 11.2,3.7zm-16.9,-25.3l29.2,0c-0.8,-4.3 -2.5,-7.6 -5.1,-10c-2.5,-2.4 -5.8,-3.6 -9.8,-3.6c-3.8,0 -7,1.2 -9.6,3.7c-2.4,2.5 -4,5.8 -4.7,9.9z" class="st1"/>
      <path id="svg_19" fill="#F4F4F4" d="m559.2,444.8l14,-39c0.8,-1.6 1.7,-2.3 2.7,-2.3l16.1,0c0.6,0 1.1,0.2 1.4,0.7c0.3,0.5 0.3,1 0.1,1.6l-23.1,63.7c-0.6,1.7 -1.6,2.6 -2.9,2.6l-16.9,0c-1.3,0 -2.3,-0.9 -2.9,-2.6l-22.9,-63.7c-0.7,-1.6 -0.2,-2.3 1.5,-2.3l16,0c1.1,0 2,0.8 2.7,2.3l14.2,39z" class="st1"/>
     </g>
     <g id="svg_20">
      <g id="svg_21">
       <path id="svg_22" fill="#4BBECF" d="m316.4,487.6l52.5,-90.4c1.1,-1.9 2.3,-2.9 3.8,-2.9l15.5,0c1.1,0 1.8,0.3 2.1,0.8c0.4,0.5 0.3,1.2 -0.2,2.1l-52.5,90.4c-1.1,1.9 -2.3,2.9 -3.8,2.9l-15.5,0c-1.1,0 -1.8,-0.3 -2.1,-0.8c-0.3,-0.5 -0.3,-1.2 0.2,-2.1z" class="st4"/>
      </g>
     </g>
    </g>
   </g>
  </g>
  <g id="Camada_3"/>
  <g display="none" class="st19" id="Camada_5"/>
 </g>
</svg>
